<svg xmlns="http://www.w3.org/2000/svg" version="1.1" id="Calque_1" x="0" y="0" viewBox="0 0 400 400" enable-background="new 0 0 400 400" xml:space="preserve"><linearGradient id="SVGID_1_" gradientUnits="userSpaceOnUse" x1="211.76" y1="-176.98" x2="203.52" y2="-2.16" gradientTransform="matrix(1 0 0 -1 0 219.4941)"><stop offset="0" stop-color="#FFFFFF"/><stop offset="1" stop-color="#000000"/></linearGradient><path fill="url(#SVGID_1_)" d="M392.4 194c0 107.1-80.1 170.8-187.2 170.8s-194-86.8-194-194C11.2 170.8 141.2 406.4 392.4 194z"/><linearGradient id="SVGID_2_" gradientUnits="userSpaceOnUse" x1="358.42" y1="-302.33" x2="703.64" y2="-302.33" gradientTransform="matrix(-0.1898 0.9818 0.9818 0.1898 539.2175 -290.4092)"><stop offset="0" stop-color="#FFFFFF"/><stop offset="1" stop-color="#000000"/></linearGradient><path fill="url(#SVGID_2_)" d="M186.9 358.1C81.8 337.8 10.8 247.3 28.5 155.9 46.1 64.5 181.5 5.5 286.7 25.8 286.7 25.8-42.7 162.2 186.9 358.1z"/><linearGradient id="SVGID_3_" gradientUnits="userSpaceOnUse" x1="377.41" y1="80.98" x2="714.41" y2="80.98" gradientTransform="matrix(0 1 -1 0 341.8281 -329.3999)"><stop offset="0" stop-color="#FFFFFF"/><stop offset="1" stop-color="#000000"/></linearGradient><path fill="url(#SVGID_3_)" d="M159.5 385c107.1 0 202.6-62.8 202.6-155.8 0-93.1-95.5-181.1-202.6-181.1C159.5 48 422.2 236.2 159.5 385z"/><linearGradient id="SVGID_4_" gradientUnits="userSpaceOnUse" x1="4.46" y1="103.47" x2="392.36" y2="103.47"><stop offset="0" stop-color="#FFFFFF"/><stop offset="1" stop-color="#000000"/></linearGradient><path fill="url(#SVGID_4_)" d="M392.4 200.4c0-107.1-86.8-194-193.9-194S4.5 93.3 4.5 200.4C4.5 200.4 71-120.9 392.4 200.4z"/><linearGradient id="SVGID_5_" gradientUnits="userSpaceOnUse" x1="297.25" y1="-179.39" x2="685.15" y2="-179.39" gradientTransform="matrix(-3.470000e-02 0.9994 0.9994 3.470000e-02 297.8238 -287.6104)"><stop offset="0" stop-color="#FFFFFF"/><stop offset="1" stop-color="#000000"/></linearGradient><path fill="url(#SVGID_5_)" d="M191.7 394.3C84.6 390.6 0.9 300.8 4.6 193.7 8.3 86.7 98.1 2.9 205.1 6.6 205.1 6.6-118.3 61.9 191.7 394.3z"/><linearGradient id="SVGID_6_" gradientUnits="userSpaceOnUse" x1="156.63" y1="132.14" x2="428.87" y2="350.63" gradientTransform="matrix(0 -1 -1 0 458.3613 458.3594)"><stop offset="0" stop-color="#FFFFFF"/><stop offset="1" stop-color="#000000"/></linearGradient><path fill="url(#SVGID_6_)" d="M198.4 6.5c107.1 0 193.9 86.8 193.9 193.9 0 107.1-86.8 194-193.9 194C198.4 394.4 519.8 327.9 198.4 6.5z"/><linearGradient id="SVGID_7_" gradientUnits="userSpaceOnUse" x1="657.27" y1="134.23" x2="520.9" y2="-145.63" gradientTransform="matrix(-1 0 0 -1 805.2266 253.4941)"><stop offset="0" stop-color="#FFFFFF"/><stop offset="1" stop-color="#000000"/></linearGradient><path fill="url(#SVGID_7_)" d="M4.5 200.4c0 107.1 86.8 194 193.9 194s193.9-86.8 193.9-194C392.4 200.4 325.8 521.7 4.5 200.4z"/></svg>