<svg xmlns="http://www.w3.org/2000/svg" version="1.1" x="0" y="0" viewBox="0 0 400 400" enable-background="new 0 0 400 400" xml:space="preserve"><path fill="#EDEDED" d="M214 120.3H68.5c-4.1 0-7.5-3.4-7.5-7.5V16.1c0-4.1 3.4-7.5 7.5-7.5H214c4.1 0 7.5 3.4 7.5 7.5v96.6C221.5 116.9 218.1 120.3 214 120.3zM295.6 215.9h-99.5c-4.1 0-7.5-3.4-7.5-7.5v-64.7c0-4.1 3.4-7.5 7.5-7.5h99.5c4.1 0 7.5 3.4 7.5 7.5v64.7C303.1 212.5 299.8 215.9 295.6 215.9zM295.6 304.1h-99.5c-4.1 0-7.5-3.4-7.5-7.5v-64.7c0-4.1 3.4-7.5 7.5-7.5h99.5c4.1 0 7.5 3.4 7.5 7.5v64.7C303.1 300.7 299.8 304.1 295.6 304.1z"/><rect x="133.4" y="115.6" fill="#EDEDED" width="15.6" height="148.7"/><rect x="161.6" y="255.3" fill="#EDEDED" width="15.6" height="99"/><rect x="133.9" y="168.2" fill="#EDEDED" width="112" height="15.6"/><rect x="133.9" y="250.2" fill="#EDEDED" width="112" height="15.6"/><path fill="#EDEDED" d="M333.2 392.8h-99.5c-4.1 0-7.5-3.4-7.5-7.5v-64.7c0-4.1 3.4-7.5 7.5-7.5h99.5c4.1 0 7.5 3.4 7.5 7.5v64.7C340.7 389.4 337.3 392.8 333.2 392.8z"/><rect x="171.4" y="338.9" fill="#EDEDED" width="112" height="15.6"/></svg>