<svg xmlns="http://www.w3.org/2000/svg" version="1.1" x="0" y="0" viewBox="0 0 400 400" enable-background="new 0 0 400 400" xml:space="preserve"><circle fill="#EDEDED" cx="311.1" cy="352.4" r="44.8"/><circle fill="#EDEDED" cx="144.9" cy="301.3" r="18.7"/><circle fill="#EDEDED" cx="28.2" cy="200.2" r="13.2"/><path fill="#EDEDED" d="M357.5 142.6l8.8-78.6c-3.1 1.1-6.4 1.7-9.8 1.7 -6.3 0-12-2-16.8-5.3l-8.6 77.1c1.6-0.2 3.3-0.3 5-0.3C343.8 137.2 351.1 139.1 357.5 142.6zM333.3 310.2l8.8-78.6c-3.1 1.1-6.4 1.7-9.8 1.7 -6.3 0-12-2-16.8-5.3l-8.6 77.1c1.6-0.2 3.3-0.3 5-0.3C319.7 304.8 326.9 306.7 333.3 310.2zM290.2 165.3l-100-35.4c0.6 3.2 0.6 6.6 0 9.9 -1.1 6.2-4 11.5-8.1 15.6l103.4 38.4C285.6 192.2 283.3 173.8 290.2 165.3zM289.2 203.2l-136.8 75.5c2.8 1.7 10.6 4 13.6 14.7l133.4-75.4C298.2 216.9 291 214 289.2 203.2zM132.8 282.6l-88.7-79.3c-1 3-2.8 5.6-11.2 12.4l90 81.7C123.7 295.9 124.2 288.4 132.8 282.6zM266.3 331.9l-100-35.4c0.6 3.2 0.6 6.6 0 9.9 -1.1 6.2-4 11.5-8.1 15.6l103.4 38.4C261.7 358.8 259.4 340.4 266.3 331.9zM356.3 146c-6.4-3.5-13.7-5.4-21.4-5.4 -1.7 0-3.4 0.1-5 0.3 -22.4 2.5-39.7 21.4-39.7 44.5 0 24.7 20 44.8 44.8 44.8s44.8-20 44.8-44.8C379.7 168.3 370.2 153.6 356.3 146zM328.4 19.2h-86.1c1.1 1.5 1.8 3.3 1.8 5.3s-0.7 3.9-1.8 5.3h83.5C326.1 26.1 327 22.5 328.4 19.2zM357.2 3c-11.5 0-21.4 6.6-26.1 16.2 -1.6 3.3-2.6 6.9-2.9 10.7 -0.1 0.7-0.1 1.5-0.1 2.2 0 9.8 4.9 18.5 12.3 23.8 4.7 3.4 10.5 5.3 16.8 5.3 3.4 0 6.7-0.6 9.8-1.7 11.3-4 19.3-14.8 19.3-27.4C386.3 16 373.2 3 357.2 3zM179.8 118.5l53.4-83.7c-0.6 0.1-1.2 0.2-1.8 0.2 -3.4 0-6.4-2-7.9-4.8l-54.6 85.6c0.4 0 0.8 0 1.2 0C173.6 115.8 176.9 116.8 179.8 118.5zM178.3 120.4c-2.8-1.8-6.2-2.8-9.8-2.8 -0.4 0-0.8 0-1.2 0 -9.8 0.6-17.5 8.7-17.5 18.7 0 10.3 8.4 18.7 18.7 18.7 10.3 0 18.7-8.4 18.7-18.7C187.2 129.6 183.6 123.7 178.3 120.4zM240.4 19.2c-1.6-2.2-4.2-3.6-7.1-3.6 -4.9 0-8.9 4-8.9 8.9 0 1.5 0.4 2.9 1 4.1 1.5 2.9 4.5 4.8 7.9 4.8 0.6 0 1.2-0.1 1.8-0.2 2.2-0.4 4-1.7 5.3-3.4 1.1-1.5 1.8-3.3 1.8-5.3S241.5 20.7 240.4 19.2z"/></svg>