<?xml version="1.0" encoding="utf-8"?>
<!-- Generator: Adobe Illustrator 19.1.0, SVG Export Plug-In . SVG Version: 6.00 Build 0)  -->
<svg version="1.1" id="Calque_1" xmlns="http://www.w3.org/2000/svg" xmlns:xlink="http://www.w3.org/1999/xlink" x="0px" y="0px"
	 viewBox="274 -302.9 444 823.9" style="enable-background:new 274 -302.9 444 823.9;" xml:space="preserve">
<style type="text/css">
	.st0{fill:#FFFFFF;stroke:#010202;stroke-miterlimit:10;}
	.st1{fill:#010202;}
	.st2{fill:none;stroke:#010202;stroke-miterlimit:10;}
	.st3{fill:none;stroke:#010202;stroke-linecap:round;stroke-linejoin:round;stroke-miterlimit:10;}
</style>
<g>
	<path class="st0" d="M556.4,436.2c-4.9-15,6.2-62.9,6.2-62.9c0-4.8-3.9-8.7-8.6-8.7H440.8c-4.8,0-8.7,3.9-8.7,8.7
		c0,0,13,24.1,16.9,50.9c3.8,26.9,7.3,40.4,29.2,40.4H554c4.8,0,8.5-4.2,8.5-8.9v-12.6C562.5,443,557.1,438.4,556.4,436.2z"/>
	<path class="st1" d="M449,424.4c-3.8-26.9-16.9-51-16.9-51s10.5,47.8,5.6,62.8c-0.7,2.2-6.7,6.8-6.7,6.8v12.6c0,4.8,5,9.4,9.8,9.4
		h37.4C456.3,465.1,452.9,451.3,449,424.4z"/>
	<path class="st1" d="M545,424.4c3.8-26.9,16.9-51,16.9-51s-11,47.8-6.1,62.8c0.7,2.2,6.2,6.8,6.2,6.8v12.6c0,4.8-4,9.4-8.8,9.4
		h-37.4C537.7,465.1,541.1,451.3,545,424.4z"/>
	<g>
		<g>
			<path class="st1" d="M498.5,442.9c6.3,0.1,11.5-5,11.5-11.3c0.1-6.3-5-11.5-11.3-11.5l0.1-11.7c12.7,0.1,23,10.6,22.9,23.3
				s-10.6,23-23.3,22.9L498.5,442.9z"/>
		</g>
		<path class="st2" d="M526,407.9c-3.5-15.4-18.8-25.1-34.2-21.7c-15.4,3.5-25.1,18.8-21.7,34.2c2.7,12.2,12.8,20.8,24.6,22.2
			c-9.4-1.3-17.4-8.2-19.6-18c-2.8-12.5,5.1-25,17.6-27.8s25,5.1,27.8,17.6c2.8,12.5-5.1,25-17.6,27.8c-1.5,0.3-3.1,0.5-4.6,0.6
			c2,0,4-0.2,6.1-0.7C519.7,438.6,529.4,423.3,526,407.9z"/>
		<g>
			<path class="st1" d="M497.2,420c-12.7-0.2-22.9-10.7-22.8-23.4c0.2-12.7,10.7-22.9,23.4-22.8l-0.2,11.7
				c-6.3-0.1-11.5,5-11.6,11.3s5,11.5,11.3,11.6L497.2,420z"/>
		</g>
	</g>
	<path class="st2" d="M432.2,373.2c0,0,17.7,25.6,24.6,57.1s16.9,33.3,39.9,34"/>
	<path class="st2" d="M562.6,373.2c0,0-17.7,25.6-24.6,57.1s-16.9,33.3-39.9,34"/>
	<path class="st0" d="M565.5,355.7c0,4.9-4,8.9-8.9,8.9H439.4c-4.9,0-8.9-4-8.9-8.9v-0.2c0-4.9,4-8.9,8.9-8.9h117.2
		c4.9,0,8.9,4,8.9,8.9V355.7L565.5,355.7z"/>
	<g>
		<polygon class="st1" points="456.7,358 445.9,347.1 467.6,347.1 		"/>
		<polygon class="st1" points="478.2,358 467.4,347.1 489.1,347.1 		"/>
		<polygon class="st1" points="499.7,358 488.8,347.1 510.6,347.1 		"/>
		<polygon class="st1" points="521.2,358 510.3,347.1 532,347.1 		"/>
		<polygon class="st1" points="542.7,358 531.8,347.1 553.5,347.1 		"/>
	</g>
	<g>
		<polygon class="st1" points="446,353.2 435.1,364.1 456.8,364.1 		"/>
		<polygon class="st1" points="467.5,353.2 456.6,364.1 478.3,364.1 		"/>
		<polygon class="st1" points="489,353.2 478.1,364.1 499.8,364.1 		"/>
		<polygon class="st1" points="510.4,353.2 499.6,364.1 521.3,364.1 		"/>
		<polygon class="st1" points="531.9,353.2 521.1,364.1 542.8,364.1 		"/>
		<polygon class="st1" points="551.9,353.2 541,364.1 562.7,364.1 		"/>
	</g>
	<path class="st0" d="M562.5,337.5c0,4.8-3.8,9.1-8.5,9.1H440.8c-4.8,0-8.3-4.3-8.3-9.1c0,0,0-20.5,0-27.4c0-3.1,4-9.2,4-12.3
		c0-23,0-69.1,0-92.1c0-3.1-4-9.2-4-12.3c0-11.5,0-45.8,0-45.8c0-4.8,3.5-9,8.3-9H554c4.8,0,8.5,4.2,8.5,9c0,0,0,34.4,0,45.8
		c0,3.1-4,9.2-4,12.3c0,23,0,69.1,0,92.1c0,3.1,4,9.2,4,12.3C562.5,316.9,562.5,337.5,562.5,337.5z"/>
	<g>
		<path class="st0" d="M453.4,153.9c0-9.1,4.3-16.5,13.4-16.5s13.4,7.4,13.4,16.5s-4.4,17.8-13.4,16.5"/>
		<path class="st0" d="M436.8,204.2c0,0,1.1-38,30.1-33.8"/>
		<path class="st2" d="M453.4,153.6c0,0,5-9.1,13.4-9.1c8.5,0,9.5,4.8,9.7,7.9c0.2,3.4-0.3,10.7-8.8,10.2c-6.1-0.4-29.5-1-31,37.7"
			/>
	</g>
	<g>
		<path class="st0" d="M541.9,153.9c0-9.1-4.3-16.5-13.4-16.5s-13.4,7.4-13.4,16.5s4.4,17.8,13.4,16.5"/>
		<path class="st0" d="M558.1,203.5c0,0-0.6-37.3-29.6-33.1"/>
		<path class="st2" d="M541.9,153.6c0,0-5-9.1-13.4-9.1c-8.5,0-9.5,4.8-9.7,7.9c-0.2,3.4,0.3,10.7,8.8,10.2c6.1-0.4,29.5-1,31,37.7"
			/>
	</g>
	<path class="st2" d="M436.8,296.3c0,0,20,1.9,20,32.2c0,0-5-21.9-24.6-20L436.8,296.3z"/>
	<path class="st2" d="M558,296.3c0,0-20,1.9-20,32.2c0,0,5-21.9,24.6-20L558,296.3z"/>
	<path class="st2" d="M432.2,191.9c0,0,5.3-0.8,5.9-3.3"/>
	<path class="st2" d="M562.4,191.9c0,0-5.3-0.8-5.9-3.3"/>
	<path class="st2" d="M558.2,203.5c0,0-8.2-25.2-47.1-21c0,0-7.1,1-12.1,1h-3.2c-5,0-12.1-1-12.1-1c-38.9-4.2-47.1,20.9-47.1,20.9"
		/>
	<path class="st2" d="M488.7,201.5c0.5,3.3-5.7,7.2-14.6,9.4c-1.4,0.3-2.6,2.1-4.1,2.4c-1.6,0.3-3.5-1.1-5-0.9
		c-8.9,0.7-15.9-1-16.4-4.3c-0.6-3.4,6-7.4,15.3-9.5c1.2-0.3,2.2-2,3.4-2.2c1.2-0.2,2.6,1.2,3.8,1.1
		C480.5,196.3,488.1,198,488.7,201.5z"/>
	<path class="st2" d="M505.3,201.5c-0.5,3.3,5.7,7.2,14.6,9.4c1.4,0.3,2.6,2.1,4.1,2.4c1.6,0.3,3.5-1.1,5-0.9
		c8.9,0.7,15.9-1,16.4-4.3c0.6-3.4-6-7.4-15.3-9.5c-1.2-0.3-2.2-2-3.4-2.2s-2.6,1.2-3.8,1.1C513.5,196.3,505.9,198,505.3,201.5z"/>
	<circle class="st2" cx="468.4" cy="204" r="6.1"/>
	<circle class="st2" cx="525.2" cy="204" r="6.1"/>
	<circle class="st1" cx="471.7" cy="204.5" r="2.7"/>
	<circle class="st1" cx="522.3" cy="204.5" r="2.7"/>
	<path class="st1" d="M444.4,185c0,0,3.7-13.1,22.4-12.6C466.9,172.4,450.1,178,444.4,185z"/>
	<path class="st1" d="M551.3,185c0,0-3.7-13.1-22.4-12.6C528.9,172.4,545.6,178,551.3,185z"/>
	<path class="st1" d="M531,257.1c0,0-25.3-3.1-33.9-3.1c-8.8,0-35.1,3.1-35.1,3.1c-4.8,0-9,3-9,6.8v9.4c0,3.8,4.1,6.8,9,6.8
		c0,0,26.5-3.1,35.3-3.1c8.6,0,33.9,3.1,33.9,3.1c4.8,0,8.9-3,8.9-6.8v-9.4C540,260.2,535.8,257.1,531,257.1z M520,270.6
		c0,2.1-1.7,3.8-4.4,3.8c0,0-13.9-1.7-18.7-1.7c-4.9,0-19.3,1.7-19.3,1.7c-2.7,0-4.6-1.7-4.6-3.8v-5.3c0-2.1,2.1-3.8,4.8-3.8
		c0,0,14.7-1.7,19.6-1.7c4.8,0,18.2,1.7,18.2,1.7c2.7,0,4.4,1.7,4.4,3.8V270.6z"/>
	<path class="st2" d="M507.5,252.6c0,6-22,6-22,0v-15.8c0-5.7,5-10.2,10.7-10.2h0.8c5.7,0,10.5,4.5,10.5,10.2V252.6z"/>
	<path class="st2" d="M507.5,278.6c0-6-22-6-22,0V325c0,5.7,5,10.6,10.7,10.6h0.8c5.7,0,10.5-4.8,10.5-10.6V278.6z"/>
	<path class="st2" d="M485.9,242.9c0,0,11.3,1.2,11.3,11.1c0,0,0.2-11.4,10.2-11.4"/>
	<path class="st1" d="M436.6,228.9c0,0,9.3-4.4,16.8-5.4c0,0-14.9,5-16.7,12.7L436.6,228.9z"/>
	<path class="st1" d="M436,244.3c0,0,8-8.4,16.7-12.5c0,0-13.6,7.9-16.7,23.6V244.3z"/>
	<path class="st1" d="M558.7,228.9c0,0-9.3-4.4-16.8-5.4c0,0,14.9,5,16.7,12.7L558.7,228.9z"/>
	<path class="st1" d="M559,244.3c0,0-8-8.4-16.7-12.5c0,0,13.7,7.9,16.7,23.6V244.3z"/>
	<path class="st0" d="M562.6,128.8c0,4.8-3.9,8.8-8.7,8.8H440.8c-4.8,0-8.7-4-8.7-8.8l3.2-4.7l-2.9-6.9V46.3c0-4.8,3.5-8.7,8.3-8.7
		H554c4.8,0,8.5,3.9,8.5,8.7v70.9l-3,6.9L562.6,128.8z"/>
	<path class="st2" d="M562.6,61.6c0,0-16.7-10.8-37.6-7.4c-20.9,3.4-7.3,21.3-26.6,21.3h-2.3c-19.2,0-5.6-17.9-26.5-21.3
		S432,61.5,432,61.5"/>
	<path class="st2" d="M432.1,64.9c0,0,31.9-9.3,53,11.1c0,0,2.3,2.9,12.3,3.1"/>
	<path class="st2" d="M561.9,64.9c0,0-31.9-9.3-53,11.1c0,0-2.3,2.9-12.3,3.1"/>
	<g>
		<ellipse class="st2" cx="497" cy="106.2" rx="64.8" ry="15.5"/>
		<g>
			<path class="st0" d="M456.5,96.1v16c2,0.3,3,0.6,5,0.9V95.3C459.5,95.5,458.5,95.8,456.5,96.1z"/>
			<path class="st0" d="M473.5,93.7v20.9c2,0.2,4,0.4,6,0.5V93.2C477.5,93.3,475.5,93.5,473.5,93.7z"/>
			<path class="st0" d="M467.5,94.4v19.5c2,0.3,4,0.5,6,0.7V93.7C471.5,93.9,469.5,94.1,467.5,94.4z"/>
			<path class="st0" d="M461.5,95.3V113c2,0.3,4,0.6,6,0.9V94.4C465.5,94.6,463.5,94.9,461.5,95.3z"/>
			<path class="st0" d="M440.9,104.1c0,1.4,1.6,2.8,3.6,4v-8C442.5,101.4,440.9,102.7,440.9,104.1z"/>
			<path class="st0" d="M450.5,97.7v12.9c2,0.5,4,1.1,6,1.5v-16C454.5,96.6,452.5,97.1,450.5,97.7z"/>
			<path class="st0" d="M444.5,100.1v8c2,0.9,4,1.7,6,2.4V97.6C448.5,98.4,446.5,99.2,444.5,100.1z"/>
			<path class="st0" d="M513.5,93.1v22V93.1c-1-0.1-3-0.2-5-0.2v22.2V92.8c-2-0.1-4-0.1-6-0.2v22.5V92.6c-1,0-3.4-0.1-5.2-0.1
				c-0.3,0-0.8,0-0.8,0v22.6V92.6c-2,0-4,0-6,0.1v22.4V92.7c-2,0.1-4,0.1-6,0.2v22.2V92.9c-2,0.1-3,0.2-5,0.3v21.9
				c6,0.4,11.6,0.6,17.8,0.6c7.8,0,15.2-0.3,22.2-0.9V93.6C517.5,93.4,515.5,93.2,513.5,93.1z"/>
			<path class="st0" d="M542.5,97.2v13.9c3-0.6,5-1.3,6-2.1v-9.8C547.5,98.5,545.5,97.8,542.5,97.2z"/>
			<path class="st0" d="M553.9,104.1c0-1.8-1.4-3.4-5.4-4.9v9.8C552.5,107.5,553.9,105.9,553.9,104.1z"/>
			<path class="st0" d="M536.5,95.8v16.7c2-0.4,4-0.9,6-1.4V97.2C540.5,96.7,538.5,96.2,536.5,95.8z"/>
			<path class="st0" d="M519.5,93.5v21.2c2-0.2,4-0.4,6-0.6v-20C523.5,93.9,521.5,93.7,519.5,93.5z"/>
			<path class="st0" d="M525.5,94.2v20c2-0.2,4-0.5,6-0.8V95.1C529.5,94.7,527.5,94.4,525.5,94.2z"/>
			<path class="st0" d="M531.5,95v18.3c2-0.2,4-0.5,5-0.8V95.8C535.5,95.5,533.5,95.2,531.5,95z"/>
		</g>
	</g>
	<line class="st2" x1="441" y1="103.6" x2="554" y2="103.6"/>
	<path class="st2" d="M478.8,91.2c0-5.8,8.6-12,19.3-12c10.7,0,19.3,6.2,19.3,12"/>
	<g>
		
			<ellipse transform="matrix(-9.092081e-02 -0.9959 0.9959 -9.092081e-02 419.1067 540.6265)" class="st2" cx="456.3" cy="79" rx="13.7" ry="24.2"/>
		<ellipse class="st2" cx="466.4" cy="78.3" rx="7.2" ry="11.3"/>
		<ellipse class="st2" cx="466.3" cy="81.1" rx="5.3" ry="7.6"/>
		<ellipse class="st1" cx="466.3" cy="85.4" rx="3.9" ry="4"/>
	</g>
	<g>
		
			<ellipse transform="matrix(-9.092174e-02 0.9959 -0.9959 -9.092174e-02 665.2026 -449.2904)" class="st2" cx="537.7" cy="79" rx="13.7" ry="24.2"/>
		<ellipse class="st2" cx="527.6" cy="78.3" rx="7.2" ry="11.3"/>
		<ellipse class="st2" cx="527.7" cy="81.1" rx="5.3" ry="7.6"/>
		<ellipse class="st1" cx="527.7" cy="85.4" rx="3.9" ry="4"/>
	</g>
	<path class="st2" d="M432.2,55.3c0,0,13.7-8.4,30.3-9"/>
	<path class="st2" d="M432.2,46.3c0,0,9.7-5.9,14.1-5.9"/>
	<path class="st2" d="M562.2,55.3c0,0-13.7-8.4-30.3-9"/>
	<path class="st2" d="M562.2,46.3c0,0-9.7-5.9-14.1-5.9"/>
	<path class="st2" d="M450.6,117.2c0,0-7.1,15.2,47.5,13.6"/>
	<path class="st2" d="M450.6,117.2c0,0-7.1,15.2,47.5,13.6"/>
	<path class="st2" d="M543.8,117.2c0,0,7.1,15.2-47.5,13.6"/>
	<path class="st0" d="M487.5,103.6v23.8c0,0-0.6,6.5,8.2,6.5c8.8,0,11.8-1,11.8-6.9c0-6.9,0-23.4,0-23.4H487.5z"/>
	<path class="st1" d="M432.2,117.2c0,0,7.1,8.4,15.3,6.9c0,0-12.2,2.4-15.3,5.2"/>
	<path class="st1" d="M562.6,117.2c0,0-7.1,8.4-15.3,6.9c0,0,12.2,2.4,15.3,5.2"/>
	<path class="st0" d="M433.3,37.6l5-109.4c0,0,1.6-84,13.9-92.5c0,0-5.5-8.2-4.7-14.1c0.8-5.9,3-10.1,3-10.1v-8.1l-1.9-2.2
		l-0.3-15.7h1.5l1.2-7.2c0,0-1.5-3.7-1.5-5.2s0-11.1,0-11.1l0.9-2.6l0.3-11.8c0,0,0.1-10.4,16.2-11.2c16-0.8,28.2,5.1,28.2,5.1h1.2
		c0,0,13.8-5.9,29.9-5.1c16,0.8,16.3,11.1,16.3,11.1l0.6,11.9l1.5,2.7c0,0,0,9.6,0,11.1s-2.1,5.2-2.1,5.2l0.6,7.2h1.5l-0.3,15.7
		l-1.8,2.2v8.1c0,0,2.2,4.3,3,10.2c0.8,5.9-4.8,14.1-4.8,14.1c12.2,8.4,13.9,92.4,13.9,92.4l5,109.4c0,0-45.5,6.1-60.7,6.1
		C482.5,43.8,433.3,37.6,433.3,37.6z"/>
	<g>
		<g>
			<path class="st1" d="M532.6-178.2c0,0-14.7-2-22.1,9.8c-7.4,11.8-11.6,33.1-11.6,44.3c0-11.3-4.2-32.6-11.6-44.3
				c-7.4-11.8-22.1-9.8-22.1-9.8c26,36.9,24.6,81.3,24.6,81.7c1.3-0.1,9.1-0.2,9.1-0.2s7.8,0.2,9.1,0.2
				C507.9-96.8,506.6-141.2,532.6-178.2z"/>
		</g>
		<polyline class="st1" points="487,-119.9 478.1,-119.9 474.7,-128.9 485,-128.9 		"/>
		<polyline class="st1" points="485,-130.9 470.4,-130.9 466.8,-138.9 482,-138.9 		"/>
		<polyline class="st1" points="482,-139.9 464.3,-139.9 459.9,-148.9 479,-148.9 		"/>
		<polyline class="st1" points="510,-119.9 519.8,-119.9 523.2,-128.9 511,-128.9 		"/>
		<polyline class="st1" points="511,-130.9 527.4,-130.9 531.1,-138.9 514,-138.9 		"/>
		<polyline class="st1" points="514,-139.9 533.6,-139.9 538,-148.9 517,-148.9 		"/>
	</g>
	<g>
		<path class="st0" d="M438.3-71.8l-87.9-6.1c0,0-29.2,1.2-33.4-30.7c0,0-17.3-2.3-20.7-17.3c-3.5-15-1.5-14.6-1.5-14.6
			s-14.6-10.4-15.3-24.2c-0.8-13.8,9.2-9.6,9.2-9.6l160.4,12.4C449.1-161.9,439.9-137.4,438.3-71.8z"/>
		<line class="st2" x1="430.2" y1="-103.6" x2="317" y2="-108.6"/>
		<line class="st2" x1="435.2" y1="-132.8" x2="294.8" y2="-140.4"/>
	</g>
	<g>
		<path class="st0" d="M554.2-71.8l87.9-6.1c0,0,29.2,1.2,33.4-30.7c0,0,17.3-2.3,20.7-17.3c3.5-15,1.5-14.6,1.5-14.6
			s14.6-10.4,15.3-24.2c0.8-13.8-9.2-9.6-9.2-9.6l-160.4,12.4C543.4-161.9,552.6-137.4,554.2-71.8z"/>
		<line class="st2" x1="562.3" y1="-103.6" x2="675.5" y2="-108.6"/>
		<line class="st2" x1="557.3" y1="-132.8" x2="697.7" y2="-140.4"/>
	</g>
	<path class="st0" d="M549.3-14.6l13-2l5.3,6.9v35.8l-2.7,5.6c0,0-15.1,4.1-15.7,3.3c-0.5-0.8-4.8-4-3-18.4l13.3-2.6V6.1l-11.2,0.8
		C548.3,6.9,544.3-2,549.3-14.6z"/>
	<path class="st0" d="M444.1-14.6l-12.6-2l-4.9,6.9v35.8l2.3,5.6c0,0,15,4.1,15.5,3.3c0.5-0.8,4.6-4,2.8-18.4L433.6,14V6.1L445,6.9
		C444.9,6.9,449-2,444.1-14.6z"/>
	<path class="st1" d="M448.3-214.1c0,0,21.8-4.7,45.9-4.4l1.6,4.4c0,0-37.7,3.1-44.6,17.7l-2.6-2.1L448.3-214.1z"/>
	<path class="st1" d="M544.9-214.1c0,0-21.8-4.7-45.9-4.4l-1.6,4.4c0,0,37.8,3.1,44.7,17.7l2.3-2.1L544.9-214.1z"/>
	<path class="st1" d="M450.2-240.5c0,0,6.9-13.1,16.6-8.3c9.7,4.8,16.7,12,16.7,12s-31.7-12.2-34.4,5.8L450.2-240.5z"/>
	<path class="st1" d="M543.9-231c-2.7-18-34.9-5.8-34.9-5.8s7-7.2,16.7-12c9.7-4.8,16.9,8.1,16.9,8.1l1.7,2.8L543.9-231z"/>
	<path class="st0" d="M514.6-237.8c0.6,0.7,0.6,1.7,0,2.3L497.3-171c-0.6,0.6-1.7,0.6-2.3-0.1l-18.3-64.7c-0.6-0.7-0.6-1.7,0-2.3
		L514.6-237.8z"/>
	<path class="st2" d="M446.2-1c0,0,53,9.2,101.2,1.8"/>
	<g>
		<g>
			<path class="st0" d="M496.5-84.4v55.3l0.2,32.7l-6.5-0.2L488-14.3l-1.5,17.5l-11.7-0.8l-1.6-14.9L470.4,2l-12.3-1.3
				c0,0-2.4-48.7,10.1-69.6C471.4-74.2,481.5-91.1,496.5-84.4z"/>
			<path class="st1" d="M458.1,1.6l12.1,1.1c0,0-1.3,3.6-3.3,6.1c-1.9,2.5-5.2,4.8-5.2,4.8s-2.2-3.4-3.1-6.7
				C457.8,3.9,458.1,1.6,458.1,1.6z"/>
			<path class="st1" d="M486.5,3.8c0,0-0.7,4.3-1.3,5.9c-0.8,2.2-6.4,7-6.4,7s-3.1-4.9-3.7-6.6c-0.7-2-0.3-7-0.3-7L486.5,3.8z"/>
			<path class="st1" d="M490.5,4.1l6.3,0.1c0,0,0.2,3.6-0.2,4.9c-0.6,2-3.6,5.6-3.6,5.6s-1.9-2.5-2.5-4.3
				C489.9,9,490.5,4.1,490.5,4.1z"/>
		</g>
		<g>
			<path class="st0" d="M501.5-84.4v55.3l-0.4,32.7l6.4-0.2l2.2-17.7l1.5,17.5l11.7-0.8l1.6-14.9L527.3,2l12.3-1.3
				c0,0,2.5-48.7-10-69.6C526.5-74.2,516.5-91.1,501.5-84.4z"/>
			<path class="st1" d="M539.7,1.6l-12.1,1.1c0,0,1.3,3.6,3.3,6.1c1.9,2.5,5.2,4.8,5.2,4.8s2.2-3.4,3.1-6.7
				C540,3.9,539.7,1.6,539.7,1.6z"/>
			<path class="st1" d="M511.2,3.8c0,0,0.7,4.3,1.3,5.9c0.8,2.2,6.4,7,6.4,7s3.1-4.9,3.6-6.6c0.7-2,0.3-7,0.3-7L511.2,3.8z"/>
			<path class="st1" d="M507.3,4.1L501,4.2c0,0-0.2,3.6,0.2,4.9c0.6,2,3.6,5.6,3.6,5.6s1.9-2.5,2.5-4.3C507.8,9,507.3,4.1,507.3,4.1
				z"/>
		</g>
	</g>
	<path class="st3" d="M508.4-237.9c0,0-0.9-4.2-7-4.4c0,0-5.6-1.1-6.2-10.1l0,0c-0.6,9-6.2,10.1-6.2,10.1c-6.1,0.2-7,4.2-7,4.2"/>
	<polygon class="st1" points="458.1,40.4 472.7,29.1 483.4,42.9 	"/>
	<path class="st1" d="M484.4,43L498,30.5l11.8,12.8c0,0-9.2,1.4-12.3,1.4C494.2,44.7,484.4,43,484.4,43z"/>
	<polygon class="st1" points="511.3,42.8 523.5,29 536.6,40.5 	"/>
	<g>
		<ellipse class="st0" cx="461.5" cy="-228.5" rx="13.2" ry="12.5"/>
		<circle class="st0" cx="464.1" cy="-228.8" r="7.5"/>
		<circle class="st1" cx="465.9" cy="-228.4" r="3.1"/>
	</g>
	<g>
		<ellipse class="st0" cx="530.5" cy="-228.5" rx="13.2" ry="12.5"/>
		<circle class="st0" cx="528" cy="-228.8" r="7.5"/>
		<circle class="st1" cx="526.1" cy="-228.4" r="3.1"/>
	</g>
	<path class="st1" d="M291.7-168.3c7.2,29.7,71.1,24,102.3,27.9c31.2,3.8,42,7.7,42.8-1.8c0.8-9.5,5.9-15.9,5.9-15.9L291.7-168.3z
		 M330.1-152.3c-12.8-1.4-23.5-10.4-23.5-10.4c5.6,2,39.9,5.2,39.9,5.2C339.3-156.9,342.9-150.9,330.1-152.3z"/>
	<path class="st1" d="M548.1-158.1c0,0,5.1,6.4,5.9,15.9s11.5,5.6,42.8,1.8s95.2,1.8,102.3-27.9L548.1-158.1z M644.3-157.5
		c0,0,34.3-3.1,39.9-5.2c0,0-10.7,9-23.5,10.4C647.8-150.9,651.4-156.9,644.3-157.5z"/>
	<path class="st1" d="M313.3-132.8c5.7,23.6,56.6,19.1,81.5,22.2c24.8,3.1,33.4,6.1,34-1.4c0.6-7.5,4.7-12.6,4.7-12.6L313.3-132.8z
		 M343.8-120.1c-10.2-1.1-18.7-8.3-18.7-8.3c4.5,1.6,31.8,4.1,31.8,4.1C351.2-123.8,354-119,343.8-120.1z"/>
	<path class="st1" d="M557.3-124.7c0,0,4.1,5.1,4.7,12.6s9.2,4.5,34,1.4s75.8,1.4,81.5-22.2L557.3-124.7z M633.9-124.2
		c0,0,27.3-2.5,31.8-4.1c0,0-8.6,7.2-18.7,8.3C636.7-119,639.6-123.8,633.9-124.2z"/>
	<path class="st1" d="M341.7-96.5c3.9,16,38.2,12.9,55,15c16.8,2.1,22.6,4.1,23-1c0.4-5.1,3.2-8.5,3.2-8.5L341.7-96.5z M362.3-87.9
		c-6.9-0.7-12.7-5.6-12.7-5.6c3,1.1,21.5,2.8,21.5,2.8C367.3-90.3,369.2-87.1,362.3-87.9z"/>
	<path class="st1" d="M567.9-91c0,0,2.7,3.4,3.2,8.5c0.4,5.1,6.2,3,23,1c16.8-2.1,51.2,1,55-15L567.9-91z M619.6-90.6
		c0,0,18.4-1.7,21.5-2.8c0,0-5.8,4.8-12.7,5.6C621.5-87.1,623.4-90.3,619.6-90.6z"/>
</g>
</svg>
