<?xml version="1.0" encoding="utf-8"?>
<!-- Generator: Adobe Illustrator 19.1.0, SVG Export Plug-In . SVG Version: 6.00 Build 0)  -->
<svg version="1.1" id="Calque_1" xmlns="http://www.w3.org/2000/svg" xmlns:xlink="http://www.w3.org/1999/xlink" x="0px" y="0px"
	 viewBox="0 0 400 400" enable-background="new 0 0 400 400" xml:space="preserve">
<g>
	<path fill="#EDEDED" d="M102.5,78.4V41.6C102.5,21.4,86.1,5,65.9,5S29.4,21.4,29.4,41.6v36.8C14.7,89.5,5,107,5,126.9
		s9.7,37.3,24.4,48.5v183.1c0,20.2,16.4,36.6,36.6,36.6s36.6-16.4,36.6-36.6V175.3c14.7-11.1,24.4-28.6,24.4-48.5
		S117.2,89.5,102.5,78.4z M100.9,137.1c-0.2,0.6-0.4,1.3-0.6,1.9c-1.2,3.2-2.6,6.3-4.6,9c0,0.1-0.1,0.1-0.2,0.2
		c-2.1,2.9-4.6,5.5-7.5,7.6c0,0-0.1,0.1-0.1,0.1c-2.9,2.2-6.2,4-9.7,5.2c-3.8,1.4-7.9,2.3-12.2,2.3s-8.4-0.9-12.2-2.3
		c-3.5-1.2-6.8-3-9.7-5.2c0,0-0.1,0-0.1-0.1c-2.9-2.2-5.4-4.7-7.5-7.6c0-0.1-0.1-0.1-0.2-0.2c-2-2.7-3.4-5.8-4.6-9
		c-0.2-0.6-0.4-1.3-0.6-1.9c-1-3.3-1.6-6.7-1.6-10.2c0-3.6,0.7-7,1.6-10.3c0.2-0.6,0.4-1.3,0.6-1.9c1.1-3.2,2.6-6.3,4.6-9
		c0-0.1,0.1-0.1,0.2-0.2c2.1-2.9,4.6-5.5,7.5-7.6c0,0,0.1-0.1,0.1-0.1c2.9-2.2,6.2-4,9.7-5.2c3.8-1.4,7.9-2.2,12.2-2.2
		s8.4,0.9,12.2,2.2c3.5,1.3,6.8,3,9.7,5.2c0,0,0.1,0.1,0.1,0.1c2.9,2.2,5.4,4.8,7.5,7.6c0,0.1,0.1,0.1,0.2,0.2c2,2.7,3.4,5.8,4.6,9
		c0.2,0.6,0.4,1.3,0.6,1.9c1,3.3,1.6,6.7,1.6,10.3C102.5,130.4,101.8,133.8,100.9,137.1z"/>
	<path fill="#EDEDED" d="M370.6,78.4V41.6c0-20.2-16.4-36.6-36.6-36.6s-36.6,16.4-36.6,36.6v36.8c-14.7,11.2-24.4,28.6-24.4,48.5
		s9.6,37.3,24.4,48.5v183.1c0,20.2,16.4,36.6,36.6,36.6s36.6-16.4,36.6-36.6V175.3c14.7-11.1,24.4-28.6,24.4-48.5
		S385.3,89.5,370.6,78.4z M369,137.1c-0.2,0.6-0.4,1.3-0.6,1.9c-1.2,3.2-2.6,6.3-4.6,9c0,0.1-0.1,0.1-0.2,0.2
		c-2.1,2.9-4.6,5.5-7.5,7.6c0,0-0.1,0.1-0.1,0.1c-2.9,2.2-6.2,4-9.7,5.2c-3.8,1.4-7.9,2.3-12.2,2.3c-4.3,0-8.4-0.9-12.2-2.3
		c-3.5-1.2-6.8-3-9.7-5.2c0,0-0.1,0-0.1-0.1c-2.9-2.2-5.4-4.7-7.5-7.6c0-0.1-0.1-0.1-0.2-0.2c-1.9-2.7-3.4-5.8-4.6-9
		c-0.2-0.6-0.4-1.3-0.6-1.9c-1-3.3-1.6-6.7-1.6-10.2c0-3.6,0.7-7,1.6-10.3c0.2-0.6,0.4-1.3,0.6-1.9c1.1-3.2,2.6-6.3,4.6-9
		c0-0.1,0.1-0.1,0.2-0.2c2.1-2.9,4.6-5.5,7.5-7.6c0,0,0.1-0.1,0.1-0.1c2.9-2.2,6.2-4,9.7-5.2c3.8-1.4,7.9-2.2,12.2-2.2
		c4.3,0,8.4,0.9,12.2,2.2c3.5,1.3,6.8,3,9.7,5.2c0,0,0.1,0.1,0.1,0.1c2.9,2.2,5.4,4.8,7.5,7.6c0,0.1,0.1,0.1,0.2,0.2
		c2,2.7,3.4,5.8,4.6,9c0.2,0.6,0.4,1.3,0.6,1.9c1,3.3,1.6,6.7,1.6,10.2C370.6,130.4,370,133.8,369,137.1z"/>
	<path fill="#EDEDED" d="M236.6,224.6V41.6C236.6,21.4,220.2,5,200,5s-36.6,16.4-36.6,36.6v183.1c-14.7,11.1-24.4,28.6-24.4,48.5
		s9.7,37.3,24.4,48.5v36.8c0,20.2,16.4,36.6,36.6,36.6s36.6-16.4,36.6-36.6v-36.8c14.7-11.1,24.4-28.6,24.4-48.5
		S251.3,235.8,236.6,224.6z M234.9,283.4c-0.2,0.6-0.4,1.3-0.6,1.9c-1.2,3.2-2.6,6.3-4.6,9c0,0.1-0.1,0.1-0.2,0.2
		c-2.1,2.9-4.6,5.5-7.5,7.6c0,0-0.1,0.1-0.1,0.1c-2.9,2.2-6.2,4-9.7,5.2c-3.8,1.4-7.9,2.3-12.2,2.3c-4.3,0-8.4-0.9-12.2-2.3
		c-3.5-1.2-6.8-3-9.7-5.2c0,0-0.1,0-0.1-0.1c-2.9-2.2-5.4-4.7-7.5-7.6c0-0.1-0.1-0.1-0.2-0.2c-2-2.7-3.4-5.8-4.6-9
		c-0.2-0.6-0.4-1.3-0.6-1.9c-1-3.3-1.6-6.7-1.6-10.2c0-3.6,0.7-7,1.6-10.3c0.2-0.6,0.4-1.3,0.6-1.9c1.2-3.2,2.6-6.3,4.6-9
		c0-0.1,0.1-0.1,0.2-0.2c2.1-2.9,4.6-5.5,7.5-7.6c0,0,0.1-0.1,0.1-0.1c2.9-2.2,6.2-4,9.7-5.2c3.8-1.4,7.9-2.2,12.2-2.2
		c4.3,0,8.4,0.9,12.2,2.2c3.5,1.3,6.8,3,9.7,5.2c0,0,0.1,0.1,0.1,0.1c2.9,2.2,5.4,4.8,7.5,7.6c0,0.1,0.1,0.1,0.2,0.2
		c2,2.7,3.4,5.8,4.6,9c0.2,0.6,0.4,1.3,0.6,1.9c1,3.3,1.6,6.7,1.6,10.2C236.6,276.7,235.9,280.1,234.9,283.4z"/>
</g>
</svg>
