<svg xmlns="http://www.w3.org/2000/svg" version="1.1" x="0" y="0" viewBox="0 0 400 400" enable-background="new 0 0 400 400" xml:space="preserve"><g display="none"><polygon display="inline" fill="#EDEDED" points="345.1 272.6 345.1 192.9 338.2 192.9 329.3 192.9 207.9 192.9 207.9 127.4 258.6 127.4 258.6 10.3 141.4 10.3 141.4 127.4 192.1 127.4 192.1 192.9 77.7 192.9 61.8 192.9 61.8 208.8 61.8 272.6 3.3 272.6 3.3 389.7 120.4 389.7 120.4 272.6 77.7 272.6 77.7 208.8 192.1 208.8 192.1 218.2 192.2 218.2 192.2 272.6 141.4 272.6 141.4 389.7 258.6 389.7 258.6 272.6 208.1 272.6 208.1 208.8 329.3 208.8 329.3 272.6 279.6 272.6 279.6 389.7 396.7 389.7 396.7 272.6 "/></g><g display="none"><path display="inline" fill="#EDEDED" d="M200 3.7C91.4 3.7 3.3 91.8 3.3 200.4S91.4 397.1 200 397.1 396.7 309 396.7 200.4 308.6 3.7 200 3.7zM83.7 231v-24.5H9.4v-12.3h74.3v-24.5l53 30.7L83.7 231zM199.1 387.9l-30.7-53H193v-74.3h12.3v74.3h24.5L199.1 387.9zM205.3 62.4v74.3H193V62.4h-24.5l30.7-53 30.7 53H205.3zM317.2 206.5V231l-53-30.7 53-30.7v24.5h74.3v12.3H317.2z"/></g><path fill="#EDEDED" d="M73.1 228.2c0.1 1 0.2 2 0.2 3.1 0 11.2-5 21.2-12.8 28.1l168.3 55.4c0-11.7 2.7-22.8 7.3-32.9L73.1 228.2zM319.4 108l-14.2 127.8c0.9 0 1.7-0.1 2.6-0.1 12.9 0 25.1 3.1 35.9 8.7l14.5-131.6c-4.3 1.1-8.8 1.7-13.5 1.7C335.6 114.5 327 112.1 319.4 108zM343.1 249.3c-10.6-5.7-22.5-8.9-35.4-8.9 -1 0-2 0-3.1 0.1 -28.5 1.2-52.8 18.3-64.3 42.7 -4.5 9.6-7 20.3-7 31.6 0 0.5 0 0.9 0 1.3 0.7 40.4 33.8 73.1 74.4 73.1 41.1 0 74.5-33.4 74.5-74.5C382.3 286.5 366.5 261.9 343.1 249.3zM142.9 69.4c-5.3-0.5-9.9-3.4-13-7.4L48.7 196.3c4.8 1.7 9.1 4.4 12.8 7.8L142.9 69.4zM68.3 226.6c-1-7.2-4.4-13.6-9.3-18.5 -3.5-3.5-7.9-6.3-12.8-7.8 -3.2-1-6.6-1.6-10.2-1.6 -18 0-32.5 14.6-32.5 32.5 0 18 14.6 32.5 32.5 32.5 7.1 0 13.8-2.3 19.2-6.3 8.1-5.9 13.5-15.5 13.5-26.4C68.7 229.7 68.6 228.1 68.3 226.6zM161 59.8l130.6 2.3c0-0.3 0-0.6 0-0.9 0-4.8 0.6-9.5 1.9-14l-131.3-2.3c0.7 2 1.1 4 1.1 6.2C163.2 54.1 162.4 57.1 161 59.8zM344.8 12.5c-22.1 0-40.7 14.7-46.7 34.8 -1.3 4.4-2 9.1-2 13.9 0 0.3 0 0.7 0 1 0.4 17.4 9.9 32.5 23.9 40.8 7.3 4.3 15.8 6.8 24.9 6.8 4.8 0 9.5-0.7 14-2 20-6 34.7-24.6 34.7-46.6C393.5 34.3 371.7 12.5 344.8 12.5zM157.1 44.8c-2.3-4.5-7-7.6-12.3-7.6 -7.7 0-13.8 6.2-13.8 13.8 0 2.3 0.6 4.6 1.6 6.6 2.3 4.3 7 7.3 12.2 7.3 0.3 0 0.6 0 0.9-0.1 4-0.2 7.5-2.2 9.9-5.2 1.9-2.3 3.1-5.4 3.1-8.7C158.5 48.7 158 46.6 157.1 44.8z"/><g display="none"><g display="inline"><path fill="#EDEDED" d="M187.5 267.3c-0.2-9-2.7-16.4-7.3-22 -4.6-5.6-11-9.5-19-11.3 -8.1-1.9-21.9-2.9-41.4-3 -19.5-0.1-32.3-0.5-38.6-1 -9.8-1-17.7-3-23.7-5.9s-10.7-6.4-14.3-10.6c-3.6-4.2-6.3-9.6-8.1-16.1 -1.2-4.5-1.7-11.7-1.7-21.8v-32.3H61v28c0 12.1 2.2 20.2 6.6 24.2 4.4 4 14.2 6 29.4 6 30.6 0 50 0.6 58 2 12.5 2.1 22.2 5.7 28.9 10.8 6.8 5.1 12.8 13.1 18.1 24 5.4-12.8 13.6-22.2 24.7-28 11-6 29.1-8.8 54.1-8.8 22.8 0 36.3-0.2 40.7-0.7 7.9-0.9 13.5-3.3 16.7-7.1 3.1-3.8 4.7-11.3 4.7-22.3v-28h27.6v32.3c0 11.4-0.9 19.7-2.8 24.9 -2.7 7.5-7 13.7-13.1 18.6 -6 4.9-13.6 8.1-22.9 9.6 -9.2 1.5-24.4 2.3-45.4 2.3 -21.1 0.2-35.6 1.1-43.7 3 -8.1 1.9-14.4 5.6-19.1 11.3 -4.7 5.6-7.1 13-7.4 22L187.5 267.3 187.5 267.3z"/></g><g display="inline"><path fill="#EDEDED" d="M97.3 69.9c5 0 8.9 1.8 11.7 5.3 3.4 4.2 5 11.3 5 21.1s-1.7 16.8-5.1 21.1c-2.8 3.5-6.7 5.3-11.7 5.3 -5 0-9.1-2-12.1-5.8 -3.1-3.8-4.6-10.7-4.6-20.7 0-9.7 1.7-16.8 5.1-21C88.4 71.7 92.3 69.9 97.3 69.9zM97.3 78.1c-1.2 0-2.3 0.4-3.2 1.2 -0.9 0.8-1.6 2.1-2.2 4.1 -0.7 2.6-1 6.9-1 12.9s0.3 10.3 0.9 12.5c0.6 2.3 1.4 3.8 2.3 4.5 0.9 0.8 2 1.1 3.2 1.1 1.2 0 2.3-0.4 3.2-1.2 0.9-0.8 1.6-2.1 2.2-4.1 0.7-2.5 1-6.8 1-12.9s-0.3-10.3-0.9-12.5c-0.6-2.3-1.4-3.8-2.3-4.5C99.6 78.5 98.5 78.1 97.3 78.1z"/></g><g display="inline"><path fill="#EDEDED" d="M161.3 122.3h-10.3V83.6c-3.8 3.5-8.1 6.1-13.2 7.8v-9.3c2.7-0.9 5.6-2.5 8.8-5 3.1-2.4 5.3-5.3 6.5-8.5h8.3L161.3 122.3 161.3 122.3z"/></g><g display="inline"><path fill="#EDEDED" d="M56.8 122.3H46.6V83.6c-3.8 3.5-8.1 6.1-13.2 7.8v-9.3c2.7-0.9 5.6-2.5 8.8-5 3.2-2.5 5.3-5.3 6.5-8.5h8.3L56.8 122.3 56.8 122.3z"/></g><g display="inline"><path fill="#EDEDED" d="M201.8 69.9c5 0 8.9 1.8 11.7 5.3 3.4 4.2 5 11.3 5 21.1s-1.7 16.8-5.1 21.1c-2.8 3.5-6.7 5.3-11.7 5.3 -5 0-9.1-2-12.1-5.8 -3.1-3.8-4.6-10.7-4.6-20.7 0-9.7 1.7-16.8 5.1-21C193 71.7 196.8 69.9 201.8 69.9zM201.8 78.1c-1.2 0-2.3 0.4-3.2 1.2 -0.9 0.8-1.6 2.1-2.2 4.1 -0.7 2.6-1 6.9-1 12.9s0.3 10.3 0.9 12.5c0.6 2.3 1.4 3.8 2.3 4.5 0.9 0.8 2 1.1 3.2 1.1 1.2 0 2.3-0.4 3.2-1.2 0.9-0.8 1.6-2.1 2.2-4.1 0.7-2.5 1-6.8 1-12.9s-0.3-10.3-0.9-12.5c-0.6-2.3-1.4-3.8-2.3-4.5C204.1 78.5 203.1 78.1 201.8 78.1z"/></g><g display="inline"><path fill="#EDEDED" d="M265.9 122.3h-10.3V83.6c-3.8 3.5-8.1 6.1-13.2 7.8v-9.3c2.7-0.9 5.6-2.5 8.8-5 3.2-2.5 5.3-5.3 6.5-8.5h8.2V122.3z"/></g><g display="inline"><path fill="#EDEDED" d="M306.4 69.9c5 0 8.9 1.8 11.7 5.3 3.4 4.2 5 11.3 5 21.1s-1.7 16.8-5.1 21.1c-2.8 3.5-6.7 5.3-11.7 5.3 -5 0-9.1-2-12.1-5.8 -3.1-3.8-4.6-10.7-4.6-20.7 0-9.7 1.7-16.8 5.1-21C297.4 71.7 301.3 69.9 306.4 69.9zM306.4 78.1c-1.2 0-2.3 0.4-3.2 1.2 -0.9 0.8-1.6 2.1-2.2 4.1 -0.7 2.6-1 6.9-1 12.9s0.3 10.3 0.9 12.5c0.6 2.3 1.4 3.8 2.3 4.5 0.9 0.8 2 1.1 3.2 1.1 1.2 0 2.3-0.4 3.2-1.2 0.9-0.8 1.6-2.1 2.2-4.1 0.7-2.5 1-6.8 1-12.9s-0.3-10.3-0.9-12.5c-0.6-2.3-1.4-3.8-2.3-4.5C308.6 78.5 307.5 78.1 306.4 78.1z"/></g><g display="inline"><path fill="#EDEDED" d="M97.3 141.1c5 0 8.9 1.8 11.7 5.3 3.4 4.2 5 11.3 5 21.1 0 9.8-1.7 16.8-5.1 21.1 -2.8 3.5-6.7 5.3-11.7 5.3 -5 0-9.1-2-12.1-5.8s-4.6-10.7-4.6-20.7c0-9.7 1.7-16.8 5.1-21C88.4 142.9 92.3 141.1 97.3 141.1zM97.3 149.4c-1.2 0-2.3 0.4-3.2 1.2 -0.9 0.8-1.6 2.1-2.2 4.1 -0.7 2.6-1 6.9-1 12.9s0.3 10.3 0.9 12.5c0.6 2.3 1.4 3.8 2.3 4.5 0.9 0.8 2 1.1 3.2 1.1 1.2 0 2.3-0.4 3.2-1.2s1.6-2.1 2.2-4.1c0.7-2.5 1-6.8 1-12.9s-0.3-10.3-0.9-12.5 -1.4-3.8-2.3-4.5C99.6 149.7 98.5 149.4 97.3 149.4z"/></g><g display="inline"><path fill="#EDEDED" d="M161.3 193.6h-10.3v-38.7c-3.8 3.5-8.1 6.1-13.2 7.8v-9.3c2.7-0.9 5.6-2.5 8.8-5 3.1-2.4 5.3-5.3 6.5-8.5h8.3L161.3 193.6 161.3 193.6z"/></g><g display="inline"><path fill="#EDEDED" d="M213.9 193.6h-10.3v-38.7c-3.8 3.5-8.1 6.1-13.2 7.8v-9.3c2.7-0.9 5.6-2.5 8.8-5 3.1-2.4 5.3-5.3 6.5-8.5h8.3L213.9 193.6 213.9 193.6z"/></g><g display="inline"><path fill="#EDEDED" d="M185.8 278.5c5 0 8.9 1.8 11.7 5.3 3.4 4.2 5 11.3 5 21.1 0 9.8-1.7 16.8-5.1 21.1 -2.8 3.5-6.7 5.3-11.7 5.3 -5 0-9.1-2-12.1-5.8 -3.1-3.8-4.6-10.7-4.6-20.7 0-9.7 1.7-16.8 5.1-21C177 280.2 180.8 278.5 185.8 278.5zM185.8 286.7c-1.2 0-2.3 0.4-3.2 1.2 -0.9 0.8-1.6 2.1-2.2 4.1 -0.7 2.6-1 6.9-1 12.9s0.3 10.3 0.9 12.5c0.6 2.3 1.4 3.8 2.3 4.5 0.9 0.8 2 1.1 3.2 1.1 1.2 0 2.3-0.4 3.2-1.2 0.9-0.8 1.6-2.1 2.2-4.1 0.7-2.5 1-6.8 1-12.9s-0.3-10.3-0.9-12.5c-0.6-2.3-1.4-3.8-2.3-4.5C188.1 287 187.1 286.7 185.8 286.7z"/></g><g display="inline"><path fill="#EDEDED" d="M203 341.5c5 0 8.9 1.8 11.7 5.3 3.4 4.2 5 11.3 5 21.1s-1.7 16.8-5.1 21.1c-2.8 3.5-6.7 5.3-11.7 5.3 -5 0-9.1-2-12.1-5.8 -3.1-3.8-4.6-10.7-4.6-20.7 0-9.7 1.7-16.8 5.1-21C194.1 343.3 198 341.5 203 341.5zM203 349.8c-1.2 0-2.3 0.4-3.2 1.2 -0.9 0.8-1.6 2.1-2.2 4.1 -0.7 2.6-1 6.9-1 12.9 0 6 0.3 10.3 0.9 12.5 0.6 2.3 1.4 3.8 2.3 4.5 0.9 0.8 2 1.1 3.2 1.1 1.2 0 2.3-0.4 3.2-1.2 0.9-0.8 1.6-2.1 2.2-4.1 0.7-2.5 1-6.8 1-12.9 0-6-0.3-10.3-0.9-12.5 -0.6-2.3-1.4-3.8-2.3-4.5C205.3 350.2 204.2 349.8 203 349.8z"/></g><g display="inline"><path fill="#EDEDED" d="M233.4 331.3h-10.3v-38.7c-3.8 3.5-8.1 6.1-13.2 7.8V291c2.7-0.9 5.6-2.5 8.8-5 3.1-2.4 5.3-5.3 6.5-8.5h8.3L233.4 331.3 233.4 331.3z"/></g><g display="inline"><path fill="#EDEDED" d="M265.9 193.6h-10.3v-38.7c-3.8 3.5-8.1 6.1-13.2 7.8v-9.3c2.7-0.9 5.6-2.5 8.8-5 3.1-2.4 5.3-5.3 6.5-8.5h8.2V193.6z"/></g><g display="inline"><path fill="#EDEDED" d="M306.4 141.1c5 0 8.9 1.8 11.7 5.3 3.4 4.2 5 11.3 5 21.1 0 9.8-1.7 16.8-5.1 21.1 -2.8 3.5-6.7 5.3-11.7 5.3 -5 0-9.1-2-12.1-5.8s-4.6-10.7-4.6-20.7c0-9.7 1.7-16.8 5.1-21C297.4 142.9 301.3 141.1 306.4 141.1zM306.4 149.4c-1.2 0-2.3 0.4-3.2 1.2 -0.9 0.8-1.6 2.1-2.2 4.1 -0.7 2.6-1 6.9-1 12.9s0.3 10.3 0.9 12.5c0.6 2.3 1.4 3.8 2.3 4.5 0.9 0.8 2 1.1 3.2 1.1 1.2 0 2.3-0.4 3.2-1.2 0.9-0.8 1.6-2.1 2.2-4.1 0.7-2.5 1-6.8 1-12.9s-0.3-10.3-0.9-12.5c-0.6-2.3-1.4-3.8-2.3-4.5C308.6 149.7 307.5 149.4 306.4 149.4z"/></g><g display="inline"><path fill="#EDEDED" d="M370.3 122.3h-10.3V83.6c-3.8 3.5-8.1 6.1-13.2 7.8v-9.3c2.7-0.9 5.6-2.5 8.8-5 3.1-2.4 5.3-5.3 6.5-8.5h8.3L370.3 122.3 370.3 122.3z"/></g><g display="inline"><path fill="#EDEDED" d="M43.8 0c5 0 8.9 1.8 11.7 5.3 3.4 4.2 5 11.3 5 21.1s-1.7 16.8-5.1 21.1c-2.8 3.5-6.7 5.3-11.7 5.3 -5 0-9.1-2-12.1-5.8C28.6 43.2 27 36.3 27 26.3c0-9.7 1.7-16.8 5.1-21C34.9 1.8 38.8 0 43.8 0zM43.8 8.2c-1.2 0-2.3 0.4-3.2 1.2 -0.9 0.8-1.6 2.1-2.2 4.1 -0.7 2.6-1 6.9-1 12.9s0.3 10.3 0.9 12.5c0.6 2.3 1.4 3.8 2.3 4.5 0.9 0.8 2 1.1 3.2 1.1 1.2 0 2.3-0.4 3.2-1.2 0.9-0.8 1.6-2.1 2.2-4.1 0.7-2.5 1-6.8 1-12.9s-0.3-10.3-0.9-12.5c-0.6-2.3-1.4-3.8-2.3-4.5C46.1 8.6 45 8.2 43.8 8.2z"/></g><g display="inline"><path fill="#EDEDED" d="M161.3 54.1h-10.3V15.4c-3.8 3.5-8.1 6.1-13.2 7.8v-9.2c2.7-0.9 5.6-2.5 8.8-5 3.1-2.4 5.3-5.3 6.5-8.5h8.3L161.3 54.1 161.3 54.1z"/></g><g display="inline"><path fill="#EDEDED" d="M103.4 54.1H93.1V15.4c-3.8 3.5-8.1 6.1-13.2 7.8v-9.2c2.7-0.9 5.6-2.5 8.8-5 3.1-2.4 5.3-5.3 6.5-8.5h8.3L103.4 54.1 103.4 54.1z"/></g><g display="inline"><path fill="#EDEDED" d="M201.8 1.6c5 0 8.9 1.8 11.7 5.3 3.4 4.2 5 11.3 5 21.1s-1.7 16.8-5.1 21.1c-2.8 3.5-6.7 5.3-11.7 5.3 -5 0-9.1-2-12.1-5.8S185 37.9 185 28c0-9.7 1.7-16.8 5.1-21C193 3.4 196.8 1.6 201.8 1.6zM201.8 9.9c-1.2 0-2.3 0.4-3.2 1.2 -0.9 0.8-1.6 2.1-2.2 4.1 -0.7 2.6-1 6.9-1 12.9s0.3 10.3 0.9 12.5c0.6 2.3 1.4 3.8 2.3 4.5 0.9 0.8 2 1.1 3.2 1.1 1.2 0 2.3-0.4 3.2-1.2 0.9-0.8 1.6-2.1 2.2-4.1 0.7-2.5 1-6.8 1-12.9s-0.3-10.3-0.9-12.5c-0.6-2.3-1.4-3.8-2.3-4.5C204.1 10.3 203.1 9.9 201.8 9.9z"/></g><g display="inline"><path fill="#EDEDED" d="M254.4 1.6c5 0 8.9 1.8 11.7 5.3 3.4 4.2 5 11.3 5 21.1s-1.7 16.8-5.1 21.1c-2.8 3.5-6.7 5.3-11.7 5.3 -5 0-9.1-2-12.1-5.8s-4.6-10.7-4.6-20.7c0-9.7 1.7-16.8 5.1-21C245.4 3.4 249.3 1.6 254.4 1.6zM254.4 9.9c-1.2 0-2.3 0.4-3.2 1.2 -0.9 0.8-1.6 2.1-2.2 4.1 -0.7 2.6-1 6.9-1 12.9s0.3 10.3 0.9 12.5c0.6 2.3 1.4 3.8 2.3 4.5 0.9 0.8 2 1.1 3.2 1.1 1.2 0 2.3-0.4 3.2-1.2 0.9-0.8 1.6-2.1 2.2-4.1 0.7-2.5 1-6.8 1-12.9s-0.3-10.3-0.9-12.5 -1.4-3.8-2.3-4.5C256.6 10.3 255.5 9.9 254.4 9.9z"/></g><g display="inline"><path fill="#EDEDED" d="M306.4 1.6c5 0 8.9 1.8 11.7 5.3 3.4 4.2 5 11.3 5 21.1s-1.7 16.8-5.1 21.1c-2.8 3.5-6.7 5.3-11.7 5.3 -5 0-9.1-2-12.1-5.8s-4.6-10.7-4.6-20.7c0-9.7 1.7-16.8 5.1-21C297.4 3.4 301.3 1.6 306.4 1.6zM306.4 9.9c-1.2 0-2.3 0.4-3.2 1.2 -0.9 0.8-1.6 2.1-2.2 4.1 -0.7 2.6-1 6.9-1 12.9s0.3 10.3 0.9 12.5c0.6 2.3 1.4 3.8 2.3 4.5 0.9 0.8 2 1.1 3.2 1.1 1.2 0 2.3-0.4 3.2-1.2 0.9-0.8 1.6-2.1 2.2-4.1 0.7-2.5 1-6.8 1-12.9s-0.3-10.3-0.9-12.5c-0.6-2.3-1.4-3.8-2.3-4.5C308.6 10.3 307.5 9.9 306.4 9.9z"/></g><g display="inline"><path fill="#EDEDED" d="M370.3 54.1h-10.3V15.4c-3.8 3.5-8.1 6.1-13.2 7.8v-9.2c2.7-0.9 5.6-2.5 8.8-5 3.1-2.4 5.3-5.3 6.5-8.5h8.3L370.3 54.1 370.3 54.1z"/></g></g><g display="none"><path display="inline" fill="#EDEDED" d="M243.3 153.8H52.8c-5.4 0-9.8-4.4-9.8-9.8V17.4c0-5.4 4.4-9.8 9.8-9.8h190.5c5.4 0 9.8 4.4 9.8 9.8v126.5C253.1 149.4 248.7 153.8 243.3 153.8zM350.2 279H219.9c-5.4 0-9.8-4.4-9.8-9.8v-84.7c0-5.4 4.4-9.8 9.8-9.8h130.3c5.4 0 9.8 4.4 9.8 9.8v84.7C360 274.6 355.6 279 350.2 279zM350.2 394.5H219.9c-5.4 0-9.8-4.4-9.8-9.8V300c0-5.4 4.4-9.8 9.8-9.8h130.3c5.4 0 9.8 4.4 9.8 9.8v84.7C360 390 355.6 394.5 350.2 394.5z"/><g display="inline"><rect x="137.8" y="147.6" fill="#EDEDED" width="20.5" height="194.7"/></g><g display="inline"><rect x="138.4" y="216.6" fill="#EDEDED" width="146.6" height="20.5"/></g><g display="inline"><rect x="138.4" y="323.9" fill="#EDEDED" width="146.6" height="20.5"/></g></g><g display="none"><path display="inline" fill="#EDEDED" d="M224 264.8l23.6 23.6c7.7 7.8 20.3 7.8 28.2 0 7.8-7.8 7.8-20.3 0-28.2l-23.5-23.6 23.5-23.5c0 0-89-38.1-92.7-39.4 -1.9-0.7-4-1.1-6.1-1.1 -9.4 0-17 7.6-17 16.8 0 2.2 0.4 4.2 1.1 6.1 1.4 3.5 39.4 92.9 39.4 92.9L224 264.8zM5.8 369.7H395V25H5.8v317.9V369.7zM64.1 123.9h272.5c9.9 0 17.9 8 17.9 17.9v175.1c0 9.9-8 17.9-17.9 17.9H64.1c-9.9 0-17.9-8-17.9-17.9V141.8C46.4 131.9 54.3 123.9 64.1 123.9zM46.4 71.3c0-11.2 9.1-20.3 20.3-20.3s20.3 9.1 20.3 20.3 -9.1 20.3-20.3 20.3S46.4 82.4 46.4 71.3zM119.3 71.3c0-11.2 9.1-20.3 20.3-20.3s20.3 9.1 20.3 20.3 -9.1 20.3-20.3 20.3S119.3 82.4 119.3 71.3zM192.3 71.3c0-11.2 9.1-20.3 20.3-20.3s20.3 9.1 20.3 20.3 -9.1 20.3-20.3 20.3S192.3 82.4 192.3 71.3z"/></g></svg>