<svg xmlns="http://www.w3.org/2000/svg" version="1.1" x="0" y="0" viewBox="0 0 400 400" enable-background="new 0 0 400 400" xml:space="preserve"><path fill="#EDEDED" d="M126.3 231.5c33.4 0 60-47.8 60-87.3 0-39.5-27.1-61.5-60.5-61.5 -33.4 0-60.5 22-60.5 61.5C65.3 183.7 92.9 231.5 126.3 231.5zM348.5 161.6c-9.6 22.1-30.7 40.5-51.1 40.5 -24.9 0-43-18.2-52.7-40.3 -18.2 9.4-29.8 23.5-37.1 38.3 27.7 20.6 39 51.4 43.5 75.8h46.2 84.3c9.3 0 17.3-1.5 17.3-11.5C399 264.4 404.6 190.7 348.5 161.6zM244.3 282c-4.5-24.4-15.9-55.3-43.5-75.8 -4.2-3.1-8.8-6-13.8-8.6 -11.5 26.2-36.5 48.1-60.7 48.1 -29.6 0-51.1-21.7-62.6-47.9 -66.7 34.5-58.3 122-58.3 122 0 12 9.4 13.7 20.5 13.7h100.4 100.2c11.1 0 20.6-1.7 20.6-13.7C247.1 319.8 248.3 303.4 244.3 282zM297.4 190.1c28.1 0 50.4-40.2 50.4-73.5 0-33.2-22.8-50.2-50.9-50.2s-50.9 16.9-50.9 50.2C246.1 149.9 269.3 190.1 297.4 190.1z"/></svg>